<?xml version="1.0" encoding="UTF-8"?>
<svg width="16px" height="16px" viewBox="0 0 16 16" version="1.1" xmlns="http://www.w3.org/2000/svg" xmlns:xlink="http://www.w3.org/1999/xlink">
    <!-- Generator: Sketch 63 (92445) - https://sketch.com -->
    <title>删除按钮-经过、按下</title>
    <desc>Created with Sketch.</desc>
    <g id="删除按钮-经过、按下" stroke="none" stroke-width="1" fill="none" fill-rule="evenodd">
        <path d="M2.83101808,14.858606 C2.79788198,14.8308282 2.76415418,14.7947171 2.73101808,14.758606 C2.76770446,14.7947171 2.79788198,14.8308282 2.83101808,14.858606 Z M2.67995606,14.7731567 C2.64573384,14.7409889 2.61195606,14.7088211 2.57995606,14.6731567 C2.6115116,14.7088211 2.64573384,14.7409889 2.67995606,14.7731567 Z M14.8498535,3.17871094 C14.7436523,3.07250977 14.5892334,3.01330566 14.4393921,3.01330566 L11.5585327,3.01330566 L11.5585327,2.11578369 C11.5585327,1.50878906 11.0653687,1.015625 10.458374,1.015625 L5.54077148,1.015625 C4.93377686,1.015625 4.4406128,1.50878906 4.4406128,2.11578369 L4.4406128,3.01330566 L1.54510498,3.01330567 C1.23779297,3.01330567 0.986328125,3.26293947 0.986328125,3.57208253 C0.986328125,3.88122559 1.23596192,4.13085939 1.54510498,4.13085939 L2.03826905,4.13085939 L2.03826905,13.8552857 C2.03826905,14.4622803 2.53143311,14.9554443 3.13842773,14.9554443 L13.0175781,14.9554443 C13.6245727,14.9554443 14.1177368,14.4622803 14.1177368,13.8552857 L14.1177368,4.13085938 L14.4390869,4.13085938 C14.7463989,4.13085938 15.0134289,3.88122558 15.0134289,3.57208252 C15.0137329,3.42376709 14.9560547,3.28491211 14.8498535,3.17871094 Z M5.53894044,2.11914062 L10.4534912,2.11914062 L10.4534912,3.02276611 L5.53894044,3.02276611 L5.53894044,2.11914062 Z M13.0160522,13.8537598 L3.13842773,13.8537598 L3.13842773,4.13085938 L4.56176758,4.13085938 L13.0157471,4.13085938 L13.0157471,13.8537598 L13.0160522,13.8537598 Z M7.99224853,6.00341797 C7.68157958,6.00341797 7.43041992,6.25457764 7.43041992,6.56524658 L7.43041992,11.7779541 C7.43041992,12.088623 7.68157959,12.3397827 7.99224853,12.3397827 C8.30291747,12.3397827 8.55407716,12.088623 8.55407716,11.7779541 L8.55407716,6.56524658 C8.55407716,6.25488281 8.30291748,6.00341797 7.99224853,6.00341797 Z M4.94903564,6.00341797 C4.63836669,6.00341797 4.38720703,6.25457764 4.38720703,6.56524658 L4.38720703,11.7779541 C4.38720703,12.088623 4.6383667,12.3397827 4.94903564,12.3397827 C5.25970458,12.3397827 5.51086427,12.088623 5.51086427,11.7779541 L5.51086427,6.56524658 C5.51086427,6.25488281 5.25939942,6.00341797 4.94903564,6.00341797 Z M11.0043335,6.00341797 C10.6936645,6.00341797 10.4425049,6.25457764 10.4425049,6.56524658 L10.4425049,11.7779541 C10.4425049,12.088623 10.6936646,12.3397827 11.0043335,12.3397827 C11.3150024,12.3397827 11.5661621,12.088623 11.5661621,11.7779541 L11.5661621,6.56524658 C11.5661621,6.25488281 11.3150024,6.00341797 11.0043335,6.00341797 Z" id="delete" fill="#FFFFFF"></path>
    </g>
</svg>