<?xml version="1.0" encoding="UTF-8"?>
<svg width="16px" height="16px" viewBox="0 0 16 16" version="1.1" xmlns="http://www.w3.org/2000/svg" xmlns:xlink="http://www.w3.org/1999/xlink">
    <!-- Generator: Sketch 63 (92445) - https://sketch.com -->
    <title>下载附件-置灰</title>
    <desc>Created with Sketch.</desc>
    <g id="下载附件-置灰" stroke="none" stroke-width="1" fill="none" fill-rule="evenodd">
        <path d="M1.5390625,8.0056926 C1.8375,8.0056926 2.0796875,8.24790713 2.0796875,8.54637794 L2.0796875,13.6014064 C2.0796875,13.7795513 2.225,13.9233173 2.4015625,13.9233173 L13.596875,13.9233173 C13.775,13.9233173 13.91875,13.7779886 13.91875,13.6014064 L13.91875,8.54794062 C13.91875,8.24946981 14.1609375,8.00725527 14.459375,8.00725527 C14.7578125,8.00725527 15,8.24946981 15,8.54637794 L15,14.0295792 C15,14.5640138 14.565625,15 14.0296875,15 L1.9703125,15 C1.4359375,15 1,14.5655765 1,14.0295792 L1,8.54637794 C1,8.24946981 1.240625,8.0056926 1.5390625,8.0056926 Z M8.0171875,1 C8.315625,1 8.5578125,1.24221453 8.5578125,1.54068534 L8.5578125,9.56981806 L10.071875,8.05558656 C10.1734375,7.95401272 10.309375,7.89775645 10.453125,7.89775645 C10.596875,7.89775645 10.7328125,7.95401272 10.834375,8.05558656 C11.0453125,8.26654761 11.0453125,8.6087733 10.834375,8.81973435 L8.3984375,11.2559437 C8.2921875,11.3606429 8.1546875,11.4137739 8.015625,11.4137739 C7.8765625,11.4137739 7.7375,11.3606429 7.6328125,11.2559437 L5.1984375,8.81973435 C4.9890625,8.6087733 4.9890625,8.26654761 5.2,8.05558656 C5.409375,7.84462552 5.7515625,7.84462552 5.9625,8.05558656 L7.4765625,9.56981806 L7.4765625,1.54068534 C7.4765625,1.24221453 7.71875,1 8.0171875,1 Z" id="upload" fill="#C0C4CC" fill-rule="nonzero"></path>
    </g>
</svg>