<?xml version="1.0" encoding="UTF-8"?>
<svg width="16px" height="16px" viewBox="0 0 16 16" version="1.1" xmlns="http://www.w3.org/2000/svg" xmlns:xlink="http://www.w3.org/1999/xlink">
    <!-- Generator: Sketch 63 (92445) - https://sketch.com -->
    <title>上传失败</title>
    <desc>Created with Sketch.</desc>
    <g id="上传失败" stroke="none" stroke-width="1" fill="none" fill-rule="evenodd">
        <path d="M8,0 C3.58125,0 0,3.58125 0,8 C0,12.41875 3.58125,16 8,16 C12.41875,16 16,12.41875 16,8 C16,3.58125 12.41875,0 8,0 L8,0 Z M11.765625,10.9890625 C11.9625,11.1828125 11.965625,11.4984375 11.7734375,11.696875 L11.7734375,11.696875 C11.5796875,11.89375 11.2640625,11.896875 11.065625,11.7046875 L8,8.7 L4.934375,11.703125 C4.7375,11.896875 4.4203125,11.89375 4.2265625,11.6953125 L4.2265625,11.6953125 C4.0328125,11.4984375 4.0359375,11.18125 4.234375,10.9875 L7.2859375,8 L4.234375,5.0109375 C4.0375,4.8171875 4.034375,4.5015625 4.2265625,4.303125 L4.2265625,4.303125 C4.4203125,4.10625 4.7359375,4.103125 4.934375,4.2953125 L8,7.3 L11.065625,4.296875 C11.2625,4.103125 11.5796875,4.10625 11.7734375,4.3046875 L11.7734375,4.3046875 C11.9671875,4.5015625 11.9640625,4.81875 11.765625,5.0125 L8.7140625,8 L11.765625,10.9890625 L11.765625,10.9890625 Z" id="error" fill="#EF4642"></path>
    </g>
</svg>