<?xml version="1.0" encoding="UTF-8"?>
<svg xmlns="http://www.w3.org/2000/svg" xmlns:xlink="http://www.w3.org/1999/xlink" width="16px" height="16px" viewBox="0 0 16 16" version="1.1">
    <!-- Generator: Sketch 63 (92445) - https://sketch.com -->
    <title>附件</title>
    <desc>Created with Sketch.</desc>
    <g id="附件" stroke="none" stroke-width="1" fill="none" fill-rule="evenodd">
        <g id="文件" fill-rule="nonzero">
            <rect id="矩形" fill="#000000" opacity="0" x="0" y="0" width="16" height="16"/>
            <path d="M12.3864099,12 L1.61359006,12 C1.27471578,12 1,11.7273425 1,11.3910072 L1,3.60899279 C1,3.27265749 1.27471578,3 1.61359006,3 L4.62810051,3 C4.78073104,3 4.92789678,3.05646505 5.0408357,3.15835716 L5.95253465,3.98091611 L12.3864099,3.98091611 C12.7252842,3.98091611 13,4.2535736 13,4.5899089 L13,11.3910072 C13,11.7273425 12.7252842,12 12.3864099,12 Z M2,11 L12,11 L12,5.04606682 L5.65417566,5.04606682 C5.49427665,5.04606534 5.34011768,4.98585548 5.22179481,4.87719186 L4.26670015,4 L2,4 L2,11 L2,11 Z" id="形状" fill="#909399"/>
            <path d="M14.634574,13.8295625 L4.80855103,13.8295625 C4.48436827,13.8295625 4.2215625,13.5684104 4.2215625,13.2462675 C4.2215625,12.9241246 4.48436827,12.6629725 4.80855103,12.6629725 L14.0475854,12.6629725 L14.0475854,6.41285748 C14.0475854,6.0907146 14.3103912,5.8295625 14.634574,5.8295625 C14.9587567,5.8295625 15.2215625,6.0907146 15.2215625,6.41285748 L15.2215625,13.2462675 C15.2215625,13.5684104 14.9587567,13.8295625 14.634574,13.8295625 L14.634574,13.8295625 Z" id="路径" fill="#909399"/>
        </g>
    </g>
</svg>