<?xml version="1.0" encoding="UTF-8"?>
<svg width="90px" height="56px" viewBox="0 0 90 56" version="1.1" xmlns="http://www.w3.org/2000/svg" xmlns:xlink="http://www.w3.org/1999/xlink">
    <!-- Generator: Sketch 63 (92445) - https://sketch.com -->
    <title>logo@1x</title>
    <desc>Created with Sketch.</desc>
    <defs>
        <linearGradient x1="2.9129307%" y1="46.620296%" x2="100%" y2="53.0200821%" id="linearGradient-1">
            <stop stop-color="#35C3FF" offset="0%"></stop>
            <stop stop-color="#1890FF" offset="100%"></stop>
        </linearGradient>
        <linearGradient x1="18.3711406%" y1="15.7335221%" x2="90.786787%" y2="84.3602576%" id="linearGradient-2">
            <stop stop-color="#35C3FF" offset="0%"></stop>
            <stop stop-color="#1890FF" offset="100%"></stop>
        </linearGradient>
    </defs>
    <g id="页面-1" stroke="none" stroke-width="1" fill="none" fill-rule="evenodd">
        <g id="01Ask首页" transform="translate(-24.000000, 0.000000)">
            <g id="导航栏">
                <g id="编组-3" transform="translate(24.000000, 0.000000)">
                    <path d="M41.416,35.488 L41.7645292,32.584 L35.6925292,32.584 L37.1764187,20.22 L33.8324187,20.22 L32,35.488 L41.416,35.488 Z M49.2875963,35.708 C53.7755963,35.708 56.4129839,34.08 57.1602094,27.854 C57.9074349,21.628 55.6608225,20 51.1728225,20 C46.7508225,20 44.0474349,21.628 43.3002094,27.854 C42.5529839,34.08 44.8655963,35.708 49.2875963,35.708 Z M49.6229236,32.914 C46.8289236,32.914 46.3687056,31.616 46.8202094,27.854 C47.2664324,24.136 48.0514162,22.728 50.8454162,22.728 C53.6614162,22.728 54.1084324,24.136 53.6622094,27.854 C53.2107056,31.616 52.4389236,32.914 49.6229236,32.914 Z M66.3155963,35.708 C68.2295963,35.708 70.1585615,35.4 71.3474478,35.026 L72.3507895,26.666 L66.6527895,26.666 L66.3174622,29.46 L68.9134622,29.46 L68.5174062,32.76 C67.9982044,32.87 67.489564,32.892 66.873564,32.892 C63.881564,32.892 62.9003808,31.902 63.3862094,27.854 C63.850915,23.982 65.305574,22.86 68.231574,22.86 C69.551574,22.86 70.9138107,23.058 72.0076436,23.476 L72.3588132,20.55 C71.4770591,20.198 69.7848225,20 68.3108225,20 C63.5808225,20 60.4418293,21.958 59.7342094,27.854 C58.9658609,34.256 61.6295963,35.708 66.3155963,35.708 Z M80.9675963,35.708 C85.4555963,35.708 88.0929839,34.08 88.8402094,27.854 C89.5874349,21.628 87.3408225,20 82.8528225,20 C78.4308225,20 75.7274349,21.628 74.9802094,27.854 C74.2329839,34.08 76.5455963,35.708 80.9675963,35.708 Z M81.3029236,32.914 C78.5089236,32.914 78.0487056,31.616 78.5002094,27.854 C78.9464324,24.136 79.7314162,22.728 82.5254162,22.728 C85.3414162,22.728 85.7884324,24.136 85.3422094,27.854 C84.8907056,31.616 84.1189236,32.914 81.3029236,32.914 Z" id="LOGO" fill="url(#linearGradient-1)"></path>
                    <path d="M13.4631803,31.1222436 C13.6883149,31.1734105 13.8641203,31.349216 13.9152873,31.5743506 L15.2761548,37.5621679 C15.5204087,38.6368848 14.8471853,39.706122 13.7724683,39.9503758 C13.6273594,39.9833551 13.479017,40 13.3302076,40 C12.2280839,40 11.3346362,39.1065523 11.3346362,38.0044286 C11.3346362,37.8556192 11.3512811,37.7072768 11.3842604,37.5621679 L12.7451279,31.5743506 C12.8185667,31.25122 13.1400497,31.0488048 13.4631803,31.1222436 Z M10.8629205,30.1553389 C10.9859342,30.3507136 10.9859342,30.59934 10.8629205,30.7947147 L7.59117296,35.9910196 C7.00394685,36.9236728 5.77184121,37.2036969 4.83918798,36.6164707 C4.71326061,36.5371831 4.59659695,36.4440589 4.49137283,36.3388348 C3.71205373,35.5595157 3.71205373,34.2959897 4.49137283,33.5166706 C4.59659695,33.4114465 4.71326061,33.3183222 4.83918798,33.2390346 L10.0354929,29.9672871 C10.3159097,29.7907283 10.6863617,29.874922 10.8629205,30.1553389 Z M16.6249223,29.9672871 L21.8212272,33.2390346 C22.7538804,33.8262607 23.0339045,35.0583664 22.4466783,35.9910196 C22.3673907,36.116947 22.2742665,36.2336107 22.1690424,36.3388348 C21.3897233,37.1181539 20.1261973,37.1181539 19.3468782,36.3388348 C19.2416541,36.2336107 19.1485298,36.116947 19.0692422,35.9910196 L15.7974947,30.7947147 C15.6209359,30.5142979 15.7051296,30.1438459 15.9855464,29.9672871 C16.1809212,29.8442734 16.4295476,29.8442734 16.6249223,29.9672871 Z M13.3302076,25.5 C14.4347771,25.5 15.3302076,26.3954305 15.3302076,27.5 C15.3302076,28.6045695 14.4347771,29.5 13.3302076,29.5 C12.2256381,29.5 11.3302076,28.6045695 11.3302076,27.5 C11.3302076,26.3954305 12.2256381,25.5 13.3302076,25.5 Z M2.825779,25.5044286 C2.97458837,25.5044286 3.12293084,25.5210735 3.26803974,25.5540528 L9.25585701,26.9149203 C9.5789876,26.9883591 9.78140281,27.3098421 9.70796404,27.6329727 C9.65679707,27.8581073 9.48099165,28.0339127 9.25585701,28.0850797 L3.26803974,29.4459472 C2.19332275,29.6902011 1.12408562,29.0169777 0.87983176,27.9422607 C0.846852464,27.7971518 0.830207599,27.6488094 0.830207599,27.5 C0.830207599,26.3978763 1.72365535,25.5044286 2.825779,25.5044286 Z M25.7805834,27.0577393 C25.8135627,27.2028482 25.8302076,27.3511906 25.8302076,27.5 C25.8302076,28.6021237 24.9367598,29.4955714 23.8346362,29.4955714 C23.6858268,29.4955714 23.5374844,29.4789265 23.3923755,29.4459472 L17.4045582,28.0850797 C17.0814276,28.0116409 16.8790124,27.6901579 16.9524512,27.3670273 C17.0036181,27.1418927 17.1794236,26.9660873 17.4045582,26.9149203 L23.3923755,25.5540528 C24.4670924,25.3097989 25.5363296,25.9830223 25.7805834,27.0577393 Z M7.31353698,18.6611652 C7.41876109,18.7663893 7.51188536,18.883053 7.59117296,19.0089804 L10.8629205,24.2052853 C11.0394793,24.4857021 10.9552856,24.8561541 10.6748687,25.0327129 C10.479494,25.1557266 10.2308676,25.1557266 10.0354929,25.0327129 L4.83918798,21.7609654 C3.90653475,21.1737393 3.62651074,19.9416336 4.21373685,19.0089804 C4.29302445,18.883053 4.38614872,18.7663893 4.49137283,18.6611652 C5.27069194,17.8818461 6.53421787,17.8818461 7.31353698,18.6611652 Z M21.8212272,18.3835293 C21.9471546,18.4628169 22.0638183,18.5559411 22.1690424,18.6611652 C22.9483615,19.4404843 22.9483615,20.7040103 22.1690424,21.4833294 C22.0638183,21.5885535 21.9471546,21.6816778 21.8212272,21.7609654 L16.6249223,25.0327129 C16.3445055,25.2092717 15.9740535,25.125078 15.7974947,24.8446611 C15.674481,24.6492864 15.674481,24.40066 15.7974947,24.2052853 L19.0692422,19.0089804 C19.6564683,18.0763272 20.888574,17.7963031 21.8212272,18.3835293 Z M13.3302076,15 C14.4323313,15 15.325779,15.8934477 15.325779,16.9955714 C15.325779,17.1443808 15.3091341,17.2927232 15.2761548,17.4378321 L13.9152873,23.4256494 C13.8418485,23.74878 13.5203655,23.9511952 13.1972349,23.8777564 C12.9721003,23.8265895 12.7962949,23.650784 12.7451279,23.4256494 L11.3842604,17.4378321 C11.1400065,16.3631152 11.8132299,15.293878 12.8879469,15.0496242 C13.0330558,15.0166449 13.1813982,15 13.3302076,15 Z" id="形状结合" fill="url(#linearGradient-2)"></path>
                </g>
            </g>
        </g>
    </g>
</svg>