<?xml version="1.0" encoding="UTF-8"?>
<svg width="16px" height="16px" viewBox="0 0 16 16" version="1.1" xmlns="http://www.w3.org/2000/svg" xmlns:xlink="http://www.w3.org/1999/xlink">
    <!-- Generator: Sketch 63 (92445) - https://sketch.com -->
    <title>上传成功</title>
    <desc>Created with Sketch.</desc>
    <g id="上传成功" stroke="none" stroke-width="1" fill="none" fill-rule="evenodd">
        <path d="M8,16 C3.58162268,16 0,12.4183773 0,8 C0,3.58162268 3.58162268,0 8,0 C12.4183773,0 16,3.58162268 16,8 C16,12.4183773 12.4183773,16 8,16 L8,16 Z M12.8359726,10.1208211 L6.33900293,3.79745846 C6.14349951,3.60195503 5.82600196,3.60195503 5.63049853,3.79745846 L3.1483871,6.17008798 C2.95288368,6.3655914 2.95288368,6.68308895 3.1483871,6.87859238 L3.1483871,6.87859238 C3.34389052,7.0740958 3.66138807,7.0740958 3.8568915,6.87859238 L5.98553275,4.85943304 L12.1274682,10.8293255 C12.3229717,11.0248289 12.6404692,11.0248289 12.8359726,10.8293255 L12.8359726,10.8293255 C13.0314761,10.6338221 13.0314761,10.3163245 12.8359726,10.1208211 L12.8359726,10.1208211 Z" id="succeed" fill="#52C41A" transform="translate(8.000000, 8.000000) scale(1, -1) translate(-8.000000, -8.000000) "></path>
    </g>
</svg>